<mxfile host="app.diagrams.net" agent="Mozilla/5.0 (Windows NT 10.0; Win64; x64) AppleWebKit/537.36 (KHTML, like Gecko) Chrome/134.0.0.0 Safari/537.36" version="26.1.1">
  <diagram name="Page-1" id="52a04d89-c75d-2922-d76d-85b35f80e030">
    <mxGraphModel dx="1615" dy="815" grid="1" gridSize="10" guides="1" tooltips="1" connect="1" arrows="1" fold="1" page="1" pageScale="1" pageWidth="1100" pageHeight="850" background="none" math="0" shadow="0">
      <root>
        <mxCell id="0" />
        <mxCell id="1" parent="0" />
        <mxCell id="lRav8HB0Zqkx85ylH6ax-5" style="edgeStyle=orthogonalEdgeStyle;rounded=0;orthogonalLoop=1;jettySize=auto;html=1;entryX=0;entryY=0.5;entryDx=0;entryDy=0;" edge="1" parent="1" source="lRav8HB0Zqkx85ylH6ax-1" target="lRav8HB0Zqkx85ylH6ax-4">
          <mxGeometry relative="1" as="geometry" />
        </mxCell>
        <mxCell id="lRav8HB0Zqkx85ylH6ax-10" value="Reconhecimento" style="edgeLabel;html=1;align=center;verticalAlign=middle;resizable=0;points=[];" vertex="1" connectable="0" parent="lRav8HB0Zqkx85ylH6ax-5">
          <mxGeometry x="0.1487" y="2" relative="1" as="geometry">
            <mxPoint x="-15" y="2" as="offset" />
          </mxGeometry>
        </mxCell>
        <mxCell id="lRav8HB0Zqkx85ylH6ax-1" value="Camera" style="whiteSpace=wrap;html=1;rounded=1;shadow=0;comic=0;labelBackgroundColor=none;strokeWidth=1;fontFamily=Verdana;fontSize=12;align=center;fillColor=#FFE822;strokeColor=default;" vertex="1" parent="1">
          <mxGeometry x="40" y="550" width="140" height="116" as="geometry" />
        </mxCell>
        <mxCell id="lRav8HB0Zqkx85ylH6ax-25" style="edgeStyle=orthogonalEdgeStyle;rounded=0;orthogonalLoop=1;jettySize=auto;html=1;entryX=0.5;entryY=0;entryDx=0;entryDy=0;" edge="1" parent="1" source="lRav8HB0Zqkx85ylH6ax-3" target="lRav8HB0Zqkx85ylH6ax-21">
          <mxGeometry relative="1" as="geometry" />
        </mxCell>
        <mxCell id="lRav8HB0Zqkx85ylH6ax-3" value="1" style="swimlane;html=1;fontStyle=0;childLayout=stackLayout;horizontal=1;startSize=26;fillColor=#e0e0e0;horizontalStack=0;resizeParent=1;resizeLast=0;collapsible=1;marginBottom=0;swimlaneFillColor=#ffffff;align=center;rounded=1;shadow=0;comic=0;labelBackgroundColor=none;strokeWidth=1;fontFamily=Verdana;fontSize=12;verticalAlign=middle;" vertex="1" parent="1">
          <mxGeometry x="310" y="550" width="120" height="90" as="geometry" />
        </mxCell>
        <mxCell id="lRav8HB0Zqkx85ylH6ax-4" value="Inteligencia Aritifical" style="text;html=1;strokeColor=none;fillColor=none;spacingLeft=4;spacingRight=4;whiteSpace=wrap;overflow=hidden;rotatable=0;points=[[0,0.5],[1,0.5]];portConstraint=eastwest;align=center;rounded=1;verticalAlign=middle;" vertex="1" parent="lRav8HB0Zqkx85ylH6ax-3">
          <mxGeometry y="26" width="120" height="64" as="geometry" />
        </mxCell>
        <mxCell id="lRav8HB0Zqkx85ylH6ax-8" value="3" style="swimlane;html=1;fontStyle=0;childLayout=stackLayout;horizontal=1;startSize=26;fillColor=#e0e0e0;horizontalStack=0;resizeParent=1;resizeLast=0;collapsible=1;marginBottom=0;swimlaneFillColor=#ffffff;align=center;rounded=1;shadow=0;comic=0;labelBackgroundColor=none;strokeWidth=1;fontFamily=Verdana;fontSize=12" vertex="1" parent="1">
          <mxGeometry x="600" y="550" width="140" height="90" as="geometry" />
        </mxCell>
        <mxCell id="lRav8HB0Zqkx85ylH6ax-9" value="Backend" style="text;html=1;strokeColor=none;fillColor=none;spacingLeft=4;spacingRight=4;whiteSpace=wrap;overflow=hidden;rotatable=0;points=[[0,0.5],[1,0.5]];portConstraint=eastwest;align=center;rounded=1;verticalAlign=middle;" vertex="1" parent="lRav8HB0Zqkx85ylH6ax-8">
          <mxGeometry y="26" width="140" height="64" as="geometry" />
        </mxCell>
        <mxCell id="lRav8HB0Zqkx85ylH6ax-11" style="edgeStyle=orthogonalEdgeStyle;rounded=0;orthogonalLoop=1;jettySize=auto;html=1;" edge="1" parent="1" source="lRav8HB0Zqkx85ylH6ax-4" target="lRav8HB0Zqkx85ylH6ax-9">
          <mxGeometry relative="1" as="geometry" />
        </mxCell>
        <mxCell id="lRav8HB0Zqkx85ylH6ax-12" value="Dados" style="edgeLabel;html=1;align=center;verticalAlign=middle;resizable=0;points=[];" vertex="1" connectable="0" parent="lRav8HB0Zqkx85ylH6ax-11">
          <mxGeometry x="0.0878" y="1" relative="1" as="geometry">
            <mxPoint x="-12" y="1" as="offset" />
          </mxGeometry>
        </mxCell>
        <mxCell id="lRav8HB0Zqkx85ylH6ax-15" style="edgeStyle=orthogonalEdgeStyle;rounded=0;orthogonalLoop=1;jettySize=auto;html=1;exitX=1;exitY=0.5;exitDx=0;exitDy=0;entryX=0;entryY=0.5;entryDx=0;entryDy=0;" edge="1" parent="1" source="lRav8HB0Zqkx85ylH6ax-9">
          <mxGeometry relative="1" as="geometry">
            <mxPoint x="900" y="607.9999999999998" as="targetPoint" />
          </mxGeometry>
        </mxCell>
        <mxCell id="lRav8HB0Zqkx85ylH6ax-17" value="FastAPI" style="text;html=1;align=center;verticalAlign=middle;whiteSpace=wrap;rounded=0;" vertex="1" parent="1">
          <mxGeometry x="640" y="510" width="60" height="30" as="geometry" />
        </mxCell>
        <mxCell id="lRav8HB0Zqkx85ylH6ax-26" style="edgeStyle=orthogonalEdgeStyle;rounded=0;orthogonalLoop=1;jettySize=auto;html=1;entryX=0.5;entryY=0;entryDx=0;entryDy=0;" edge="1" parent="1" source="lRav8HB0Zqkx85ylH6ax-21" target="lRav8HB0Zqkx85ylH6ax-24">
          <mxGeometry relative="1" as="geometry" />
        </mxCell>
        <mxCell id="lRav8HB0Zqkx85ylH6ax-21" value="2" style="swimlane;html=1;fontStyle=0;childLayout=stackLayout;horizontal=1;startSize=26;fillColor=#e0e0e0;horizontalStack=0;resizeParent=1;resizeLast=0;collapsible=1;marginBottom=0;swimlaneFillColor=#ffffff;align=center;rounded=1;shadow=0;comic=0;labelBackgroundColor=none;strokeWidth=1;fontFamily=Verdana;fontSize=12;arcSize=18;" vertex="1" parent="1">
          <mxGeometry x="300" y="760" width="140" height="90" as="geometry" />
        </mxCell>
        <mxCell id="lRav8HB0Zqkx85ylH6ax-22" value="Transmissão" style="text;html=1;strokeColor=none;fillColor=none;spacingLeft=4;spacingRight=4;whiteSpace=wrap;overflow=hidden;rotatable=0;points=[[0,0.5],[1,0.5]];portConstraint=eastwest;align=center;rounded=1;verticalAlign=middle;" vertex="1" parent="lRav8HB0Zqkx85ylH6ax-21">
          <mxGeometry y="26" width="140" height="64" as="geometry" />
        </mxCell>
        <mxCell id="lRav8HB0Zqkx85ylH6ax-23" value="Biblioteca: Open CV" style="text;html=1;align=center;verticalAlign=middle;whiteSpace=wrap;rounded=0;" vertex="1" parent="1">
          <mxGeometry x="460" y="790" width="60" height="30" as="geometry" />
        </mxCell>
        <mxCell id="lRav8HB0Zqkx85ylH6ax-33" style="edgeStyle=orthogonalEdgeStyle;rounded=0;orthogonalLoop=1;jettySize=auto;html=1;" edge="1" parent="1" source="lRav8HB0Zqkx85ylH6ax-24" target="lRav8HB0Zqkx85ylH6ax-38">
          <mxGeometry relative="1" as="geometry">
            <mxPoint x="470" y="910" as="sourcePoint" />
            <mxPoint x="645" y="940" as="targetPoint" />
            <Array as="points">
              <mxPoint x="420" y="910" />
              <mxPoint x="620" y="910" />
            </Array>
          </mxGeometry>
        </mxCell>
        <mxCell id="lRav8HB0Zqkx85ylH6ax-34" value="Requisição" style="edgeLabel;html=1;align=center;verticalAlign=middle;resizable=0;points=[];" vertex="1" connectable="0" parent="lRav8HB0Zqkx85ylH6ax-33">
          <mxGeometry x="0.0472" y="-1" relative="1" as="geometry">
            <mxPoint x="-27" y="-1" as="offset" />
          </mxGeometry>
        </mxCell>
        <mxCell id="lRav8HB0Zqkx85ylH6ax-24" value="Site" style="whiteSpace=wrap;html=1;rounded=1;shadow=0;comic=0;labelBackgroundColor=none;strokeWidth=1;fontFamily=Verdana;fontSize=12;align=center;fillColor=#8ABFFF;strokeColor=default;" vertex="1" parent="1">
          <mxGeometry x="280" y="930" width="180" height="190" as="geometry" />
        </mxCell>
        <mxCell id="lRav8HB0Zqkx85ylH6ax-27" value="Dados Processados" style="edgeLabel;html=1;align=center;verticalAlign=middle;resizable=0;points=[];" vertex="1" connectable="0" parent="1">
          <mxGeometry x="818.0952380952381" y="607.9999999999998" as="geometry" />
        </mxCell>
        <mxCell id="lRav8HB0Zqkx85ylH6ax-29" value="PostgreSQL" style="text;html=1;align=center;verticalAlign=middle;whiteSpace=wrap;rounded=0;" vertex="1" parent="1">
          <mxGeometry x="938.1" y="550" width="60" height="30" as="geometry" />
        </mxCell>
        <mxCell id="lRav8HB0Zqkx85ylH6ax-42" style="edgeStyle=orthogonalEdgeStyle;rounded=0;orthogonalLoop=1;jettySize=auto;html=1;" edge="1" parent="1" source="lRav8HB0Zqkx85ylH6ax-53" target="lRav8HB0Zqkx85ylH6ax-38">
          <mxGeometry relative="1" as="geometry">
            <mxPoint x="873" y="1060" as="sourcePoint" />
            <Array as="points">
              <mxPoint x="878" y="1100" />
              <mxPoint x="720" y="1100" />
            </Array>
          </mxGeometry>
        </mxCell>
        <mxCell id="lRav8HB0Zqkx85ylH6ax-45" value="Dados" style="edgeLabel;html=1;align=center;verticalAlign=middle;resizable=0;points=[];" vertex="1" connectable="0" parent="lRav8HB0Zqkx85ylH6ax-42">
          <mxGeometry x="0.0695" relative="1" as="geometry">
            <mxPoint as="offset" />
          </mxGeometry>
        </mxCell>
        <mxCell id="lRav8HB0Zqkx85ylH6ax-37" value="Dados para analíses e&amp;nbsp; gráficos" style="text;html=1;align=center;verticalAlign=middle;whiteSpace=wrap;rounded=0;fontSize=17;fontStyle=2" vertex="1" parent="1">
          <mxGeometry x="615" y="1190" width="125" height="30" as="geometry" />
        </mxCell>
        <mxCell id="lRav8HB0Zqkx85ylH6ax-43" style="edgeStyle=orthogonalEdgeStyle;rounded=0;orthogonalLoop=1;jettySize=auto;html=1;" edge="1" parent="1" source="lRav8HB0Zqkx85ylH6ax-38" target="lRav8HB0Zqkx85ylH6ax-24">
          <mxGeometry relative="1" as="geometry">
            <Array as="points">
              <mxPoint x="630" y="1140" />
              <mxPoint x="430" y="1140" />
            </Array>
          </mxGeometry>
        </mxCell>
        <mxCell id="lRav8HB0Zqkx85ylH6ax-46" value="Dados Processados" style="edgeLabel;html=1;align=center;verticalAlign=middle;resizable=0;points=[];" vertex="1" connectable="0" parent="lRav8HB0Zqkx85ylH6ax-43">
          <mxGeometry x="0.0416" y="1" relative="1" as="geometry">
            <mxPoint x="-24" y="-1" as="offset" />
          </mxGeometry>
        </mxCell>
        <mxCell id="lRav8HB0Zqkx85ylH6ax-38" value="4" style="swimlane;html=1;fontStyle=0;childLayout=stackLayout;horizontal=1;startSize=26;fillColor=#e0e0e0;horizontalStack=0;resizeParent=1;resizeLast=0;collapsible=1;marginBottom=0;swimlaneFillColor=#ffffff;align=center;rounded=1;shadow=0;comic=0;labelBackgroundColor=none;strokeWidth=1;fontFamily=Verdana;fontSize=12" vertex="1" parent="1">
          <mxGeometry x="600" y="970" width="140" height="90" as="geometry" />
        </mxCell>
        <mxCell id="lRav8HB0Zqkx85ylH6ax-39" value="Backend" style="text;html=1;strokeColor=none;fillColor=none;spacingLeft=4;spacingRight=4;whiteSpace=wrap;overflow=hidden;rotatable=0;points=[[0,0.5],[1,0.5]];portConstraint=eastwest;align=center;rounded=1;verticalAlign=middle;" vertex="1" parent="lRav8HB0Zqkx85ylH6ax-38">
          <mxGeometry y="26" width="140" height="64" as="geometry" />
        </mxCell>
        <mxCell id="lRav8HB0Zqkx85ylH6ax-41" style="edgeStyle=orthogonalEdgeStyle;rounded=0;orthogonalLoop=1;jettySize=auto;html=1;" edge="1" parent="1" source="lRav8HB0Zqkx85ylH6ax-38" target="lRav8HB0Zqkx85ylH6ax-53">
          <mxGeometry relative="1" as="geometry">
            <mxPoint x="874" y="1000" as="targetPoint" />
            <Array as="points">
              <mxPoint x="720" y="930" />
              <mxPoint x="878" y="930" />
            </Array>
          </mxGeometry>
        </mxCell>
        <mxCell id="lRav8HB0Zqkx85ylH6ax-44" value="Consulta" style="edgeLabel;html=1;align=center;verticalAlign=middle;resizable=0;points=[];" vertex="1" connectable="0" parent="lRav8HB0Zqkx85ylH6ax-41">
          <mxGeometry x="0.1593" relative="1" as="geometry">
            <mxPoint x="-26" as="offset" />
          </mxGeometry>
        </mxCell>
        <mxCell id="lRav8HB0Zqkx85ylH6ax-47" value="FastAPI" style="text;html=1;align=center;verticalAlign=middle;whiteSpace=wrap;rounded=0;" vertex="1" parent="1">
          <mxGeometry x="640" y="930" width="60" height="30" as="geometry" />
        </mxCell>
        <mxCell id="lRav8HB0Zqkx85ylH6ax-48" value="PostgreSQL" style="text;html=1;align=center;verticalAlign=middle;whiteSpace=wrap;rounded=0;" vertex="1" parent="1">
          <mxGeometry x="950" y="996" width="60" height="30" as="geometry" />
        </mxCell>
        <mxCell id="lRav8HB0Zqkx85ylH6ax-53" value="Database" style="rounded=1;whiteSpace=wrap;html=1;fillColor=#7FE1B6;perimeterSpacing=10;" vertex="1" parent="1">
          <mxGeometry x="818.1" y="996" width="120" height="34" as="geometry" />
        </mxCell>
        <mxCell id="lRav8HB0Zqkx85ylH6ax-54" style="edgeStyle=orthogonalEdgeStyle;rounded=0;orthogonalLoop=1;jettySize=auto;html=1;exitX=0.5;exitY=0;exitDx=0;exitDy=0;" edge="1" parent="1">
          <mxGeometry relative="1" as="geometry">
            <mxPoint x="678.3333333333335" y="1260" as="targetPoint" />
            <mxPoint x="678" y="1170" as="sourcePoint" />
          </mxGeometry>
        </mxCell>
        <mxCell id="lRav8HB0Zqkx85ylH6ax-55" value="Database" style="rounded=1;whiteSpace=wrap;html=1;fillColor=#7FE1B6;" vertex="1" parent="1">
          <mxGeometry x="902.5" y="591" width="120" height="34" as="geometry" />
        </mxCell>
      </root>
    </mxGraphModel>
  </diagram>
</mxfile>
